<?xml version="1.0" encoding="UTF-8" standalone="no"?>
<!DOCTYPE svg PUBLIC "-//W3C//DTD SVG 1.1//EN" "http://www.w3.org/Graphics/SVG/1.1/DTD/svg11.dtd">
<!-- Generiert durch Microsoft Visio, SVG Export Vector_Logo_VT_System_white.svg Zeichenblatt-1 -->
<svg xmlns="http://www.w3.org/2000/svg" xmlns:xlink="http://www.w3.org/1999/xlink" xmlns:ev="http://www.w3.org/2001/xml-events"
		xmlns:v="http://schemas.microsoft.com/visio/2003/SVGExtensions/" width="6.65736in" height="0.810388in"
		viewBox="0 0 479.33 58.3479" xml:space="preserve" color-interpolation-filters="sRGB" class="st5">
	<v:documentProperties v:langID="1031" v:metric="true" v:viewMarkup="false"/>

	<style type="text/css">
	<![CDATA[
		.st1 {fill:#ffffff;stroke:none;stroke-linecap:butt;stroke-width:0.75}
		.st2 {stroke:#ffffff;stroke-width:3}
		.st3 {fill:none;stroke:none;stroke-linecap:round;stroke-linejoin:round;stroke-width:0.749996}
		.st4 {fill:#ffffff;stroke:none;stroke-width:0.999994}
		.st5 {fill:none;fill-rule:evenodd;font-size:12px;overflow:visible;stroke-linecap:square;stroke-miterlimit:3}
	]]>
	</style>

	<g v:mID="0" v:index="1" v:groupContext="foregroundPage">
		<title>Zeichenblatt-1</title>
		<v:pageProperties v:drawingScale="0.0393701" v:pageScale="0.0393701" v:drawingUnits="24" v:shadowOffsetX="8.50394"
				v:shadowOffsetY="-8.50394"/>
		<g id="group37-1" transform="translate(0.75,-1.67575)" v:mID="37" v:groupContext="group">
			<title>Tabelle.37</title>
			<g id="shape38-2" v:mID="38" v:groupContext="shape" transform="translate(189.727,0)">
				<title>Bildmarke_183_x2F_0_x2F_50</title>
				<path d="M0 44.55 L0 58.35 L47.79 30.76 L0 3.17 L0 16.96 L23.89 30.76 L0 44.55 Z" class="st1"/>
			</g>
			<g id="shape39-4" v:mID="39" v:groupContext="shape" transform="translate(4.73621E-13,-15.642)">
				<title>Tabelle.39</title>
				<path d="M20.69 34.45 L27.59 34.45 L13.8 58.35 L0 34.45 L6.9 34.45 L13.8 46.4 L20.69 34.45 Z" class="st1"/>
			</g>
			<g id="shape40-6" v:mID="40" v:groupContext="shape" transform="translate(114.73,-15.0429)">
				<title>Tabelle.40</title>
				<path d="M12.55 33.26 C5.62 33.26 0 38.88 0 45.8 C0 52.73 5.62 58.35 12.55 58.35 C19.47 58.35 25.09 52.73 25.09 45.8
							 C25.09 38.88 19.47 33.26 12.55 33.26 ZM12.55 52.4 C8.9 52.4 5.94 49.45 5.94 45.8 C5.94 42.16 8.9 39.2
							 12.55 39.2 C16.19 39.2 19.15 42.16 19.15 45.8 C19.15 49.45 16.19 52.4 12.55 52.4 Z" class="st1"/>
			</g>
			<g id="shape41-8" v:mID="41" v:groupContext="shape" transform="translate(62.2494,-15.0429)">
				<title>Tabelle.41</title>
				<path d="M12.55 52.4 C8.9 52.4 5.94 49.45 5.94 45.8 C5.94 42.16 8.9 39.2 12.55 39.2 C14.37 39.2 16.02 39.94 17.21
							 41.13 L21.41 36.93 C19.14 34.66 16.01 33.26 12.55 33.26 C5.62 33.26 0 38.88 0 45.8 C0 52.73 5.62 58.35
							 12.55 58.35 C16.01 58.35 19.15 56.94 21.42 54.67 L17.21 50.47 C16.02 51.66 14.37 52.4 12.55 52.4 Z"
						class="st1"/>
			</g>
			<g id="shape42-10" v:mID="42" v:groupContext="shape" transform="translate(88.4732,-15.642)">
				<title>Tabelle.42</title>
				<path d="M0 39.83 L8.06 39.83 L8.06 58.35 L14.04 58.35 L14.04 39.83 L22.1 39.83 L22.1 34.45 L0 34.45 L0 39.83 Z"
						class="st1"/>
			</g>
			<g id="shape43-12" v:mID="43" v:groupContext="shape" transform="translate(35.3695,-15.642)">
				<title>Tabelle.43</title>
				<path d="M0 58.35 L18.52 58.35 L18.52 52.97 L5.97 52.97 L5.97 48.79 L15.77 48.79 L15.77 43.53 L5.97 43.53 L5.97 39.83
							 L18.52 39.83 L18.52 34.45 L0 34.45 L0 58.35 Z" class="st1"/>
			</g>
			<g id="shape44-14" v:mID="44" v:groupContext="shape" transform="translate(148.508,-15.642)">
				<title>Tabelle.44</title>
				<path d="M22.7 42.43 C22.7 38.03 19.14 34.45 14.74 34.45 L0 34.45 L0 58.35 L5.97 58.35 L5.97 50.4 L11.21 50.4 L15.8
							 58.35 L22.7 58.35 L17.76 49.78 C20.66 48.58 22.7 45.76 22.7 42.43 ZM14.18 45.09 L5.97 45.09 L5.97 39.77
							 L14.18 39.77 C15.6 39.83 16.73 41 16.73 42.43 C16.73 43.86 15.6 45.02 14.18 45.09 Z" class="st1"/>
			</g>
		</g>
		<g id="shape45-16" v:mID="45" v:groupContext="shape" transform="translate(262.955,-3)">
			<title>Tabelle.45</title>
			<path d="M0 58.35 L0 34.79 L0 6" class="st2"/>
		</g>
		<g id="shape46-19" v:mID="46" v:groupContext="shape" transform="translate(273.07,-7.54065)">
			<title>Tabelle.46</title>
			<rect x="0" y="18.3171" width="205.885" height="40.0308" class="st3"/>
		</g>
		<g id="group47-21" transform="translate(284.825,-10.0751)" v:mID="47" v:groupContext="group">
			<title>Tabelle.47</title>
			<g id="shape48-22" v:mID="48" v:groupContext="shape" transform="translate(-1.79856E-13,-7.03379)">
				<title>Tabelle.48</title>
				<path d="M15.06 58.35 L9.16 58.35 L0 33.97 L5.17 33.97 L12.15 53.42 L19.17 33.97 L24.22 33.97 L15.06 58.35 Z"
						class="st4"/>
			</g>
			<g id="shape49-24" v:mID="49" v:groupContext="shape" transform="translate(25.4888,-7.03379)">
				<title>Tabelle.49</title>
				<path d="M19.97 38.52 L12.41 38.52 L12.41 58.35 L7.56 58.35 L7.56 38.52 L0 38.52 L0 33.97 L19.97 33.97 L19.97 38.52
							 Z" class="st4"/>
			</g>
			<g id="shape50-26" v:mID="50" v:groupContext="shape" transform="translate(55.8148,-6.59853)">
				<title>Tabelle.50</title>
				<path d="M17.65 39.68 C16.69 39.09 15.63 38.6 14.47 38.2 C13.32 37.81 12.08 37.61 10.74 37.61 C10.06 37.61 9.43 37.68
							 8.86 37.82 C8.29 37.95 7.8 38.14 7.38 38.4 C6.98 38.64 6.66 38.94 6.42 39.3 C6.19 39.66 6.08 40.07 6.08
							 40.54 C6.08 40.99 6.2 41.37 6.44 41.67 C6.7 41.97 7.05 42.23 7.49 42.43 C7.94 42.64 8.47 42.82 9.09
							 42.97 C9.7 43.11 10.38 43.24 11.11 43.36 L12.48 43.58 C13.57 43.76 14.59 44.01 15.53 44.35 C16.48 44.69
							 17.31 45.13 18 45.67 C18.7 46.22 19.24 46.88 19.64 47.66 C20.05 48.44 20.25 49.35 20.25 50.41 C20.25
							 51.76 19.98 52.93 19.43 53.93 C18.88 54.91 18.15 55.74 17.22 56.4 C16.3 57.05 15.24 57.54 14.03 57.86
							 C12.84 58.19 11.58 58.35 10.27 58.35 C9.34 58.35 8.41 58.28 7.47 58.14 C6.53 58.01 5.61 57.81 4.72 57.55
							 C3.84 57.28 2.99 56.95 2.18 56.55 C1.38 56.15 0.65 55.68 0 55.16 L2.52 51.24 C2.97 51.59 3.47 51.93
							 4.04 52.25 C4.61 52.57 5.22 52.85 5.88 53.09 C6.56 53.33 7.26 53.53 7.99 53.66 C8.73 53.8 9.5 53.87
							 10.29 53.87 C10.96 53.87 11.59 53.81 12.17 53.68 C12.76 53.55 13.27 53.36 13.7 53.11 C14.13 52.85 14.47
							 52.54 14.71 52.18 C14.96 51.82 15.08 51.41 15.08 50.93 C15.08 50.51 14.97 50.15 14.75 49.85 C14.53 49.55
							 14.2 49.29 13.75 49.09 C13.32 48.87 12.79 48.68 12.14 48.53 C11.5 48.37 10.75 48.22 9.91 48.08 L8.36
							 47.83 C7.28 47.66 6.29 47.41 5.38 47.08 C4.47 46.75 3.69 46.3 3.03 45.74 C2.37 45.19 1.85 44.51 1.48
							 43.71 C1.11 42.9 0.92 41.95 0.92 40.85 C0.92 39.59 1.18 38.47 1.71 37.51 C2.24 36.53 2.95 35.73 3.83
							 35.09 C4.72 34.44 5.76 33.95 6.93 33.63 C8.1 33.29 9.34 33.12 10.64 33.12 C11.49 33.12 12.3 33.17 13.09
							 33.28 C13.89 33.37 14.67 33.52 15.43 33.73 C16.18 33.94 16.93 34.21 17.67 34.55 C18.43 34.87 19.19 35.26
							 19.95 35.71 L17.65 39.68 Z" class="st4"/>
			</g>
			<g id="shape51-28" v:mID="51" v:groupContext="shape" transform="translate(77.2992,0)">
				<title>Tabelle.51</title>
				<path d="M6.35 58.35 L1.38 58.35 L7.28 47.73 L0 34.44 L5.15 34.44 L9.78 43.11 L14.28 34.44 L19.26 34.44 L6.35 58.35
							 Z" class="st4"/>
			</g>
			<g id="shape52-30" v:mID="52" v:groupContext="shape" transform="translate(97.501,-6.59853)">
				<title>Tabelle.52</title>
				<path d="M13.28 45.74 C12.95 45.58 12.56 45.42 12.14 45.26 C11.72 45.09 11.27 44.95 10.79 44.82 C10.33 44.68 9.85
							 44.57 9.35 44.49 C8.86 44.41 8.38 44.37 7.9 44.37 C7.03 44.37 6.38 44.51 5.95 44.79 C5.52 45.06 5.31
							 45.44 5.31 45.9 C5.31 46.14 5.38 46.35 5.52 46.51 C5.67 46.67 5.87 46.8 6.11 46.91 C6.35 47.01 6.64
							 47.1 6.98 47.17 C7.32 47.23 7.68 47.29 8.06 47.34 L9.56 47.57 C11.39 47.85 12.8 48.4 13.77 49.22 C14.76
							 50.05 15.25 51.18 15.25 52.62 C15.25 53.49 15.08 54.28 14.73 54.99 C14.38 55.7 13.88 56.3 13.21 56.8
							 C12.55 57.29 11.74 57.66 10.78 57.93 C9.81 58.21 8.72 58.35 7.5 58.35 C6.92 58.35 6.31 58.31 5.66 58.24
							 C5.02 58.19 4.37 58.08 3.71 57.93 C3.06 57.78 2.41 57.58 1.78 57.32 C1.14 57.07 0.55 56.75 0 56.36 L1.79
							 52.92 C2.15 53.16 2.54 53.38 2.94 53.58 C3.35 53.77 3.78 53.95 4.25 54.1 C4.72 54.25 5.23 54.37 5.76
							 54.45 C6.31 54.53 6.9 54.57 7.54 54.57 C8.59 54.57 9.38 54.43 9.89 54.15 C10.4 53.87 10.66 53.48 10.66
							 52.99 C10.66 52.58 10.43 52.25 9.99 52.01 C9.55 51.77 8.84 51.58 7.85 51.44 L6.48 51.24 C2.59 50.71
							 0.64 49 0.64 46.13 C0.64 45.26 0.81 44.48 1.13 43.81 C1.46 43.13 1.93 42.55 2.54 42.07 C3.16 41.59 3.9
							 41.23 4.77 40.99 C5.65 40.73 6.65 40.61 7.77 40.61 C8.44 40.61 9.08 40.64 9.68 40.71 C10.3 40.77 10.89
							 40.87 11.46 41.01 C12.04 41.13 12.6 41.3 13.14 41.49 C13.7 41.69 14.26 41.93 14.82 42.21 L13.28 45.74
							 Z" class="st4"/>
			</g>
			<g id="shape53-32" v:mID="53" v:groupContext="shape" transform="translate(114.546,-6.59853)">
				<title>Tabelle.53</title>
				<path d="M13.91 45.08 L7.8 45.08 L7.8 51.24 C7.8 51.77 7.86 52.21 7.99 52.59 C8.13 52.94 8.31 53.24 8.53 53.47 C8.76
							 53.69 9.03 53.86 9.33 53.96 C9.65 54.06 9.98 54.12 10.32 54.12 C10.87 54.12 11.42 54.01 11.96 53.79
							 C12.52 53.55 13.03 53.3 13.49 53.02 L15.16 56.57 C14.42 57.08 13.6 57.51 12.71 57.84 C11.82 58.18 10.77
							 58.35 9.58 58.35 C7.47 58.35 5.9 57.77 4.84 56.62 C3.78 55.48 3.26 53.8 3.26 51.61 L3.26 45.08 L0 45.08
							 L0 41.04 L3.26 41.04 L3.26 36.03 L7.8 36.03 L7.8 41.04 L13.91 41.04 L13.91 45.08 Z" class="st4"/>
			</g>
			<g id="shape54-34" v:mID="54" v:groupContext="shape" transform="translate(131.206,-6.59853)">
				<title>Tabelle.54</title>
				<path d="M8.53 40.59 C9.75 40.59 10.86 40.8 11.86 41.23 C12.87 41.66 13.73 42.27 14.45 43.04 C15.17 43.82 15.73 44.76
							 16.12 45.85 C16.53 46.94 16.73 48.14 16.73 49.45 C16.73 49.72 16.72 49.99 16.7 50.27 C16.68 50.55 16.67
							 50.79 16.64 50.98 L4.68 50.98 C4.8 51.6 4.99 52.13 5.26 52.57 C5.52 53 5.84 53.36 6.22 53.65 C6.6 53.94
							 7.03 54.15 7.5 54.29 C7.98 54.42 8.48 54.48 9.02 54.48 C9.75 54.48 10.49 54.34 11.23 54.06 C11.98 53.79
							 12.67 53.39 13.28 52.86 L15.95 55.79 C14.98 56.67 13.9 57.32 12.69 57.74 C11.5 58.14 10.19 58.35 8.76
							 58.35 C7.47 58.35 6.29 58.14 5.21 57.72 C4.14 57.29 3.22 56.69 2.44 55.93 C1.67 55.15 1.07 54.22 0.64
							 53.14 C0.21 52.05 0 50.84 0 49.52 C0 48.2 0.21 46.99 0.63 45.9 C1.04 44.8 1.62 43.86 2.37 43.08 C3.12
							 42.29 4.02 41.68 5.07 41.25 C6.11 40.81 7.27 40.59 8.53 40.59 ZM8.5 44.51 C7.42 44.51 6.56 44.81 5.94
							 45.41 C5.31 46 4.9 46.83 4.7 47.88 L12.17 47.88 C11.96 46.79 11.54 45.96 10.92 45.38 C10.29 44.8 9.48
							 44.51 8.5 44.51 Z" class="st4"/>
			</g>
			<g id="shape55-36" v:mID="55" v:groupContext="shape" transform="translate(151.647,-7.03379)">
				<title>Tabelle.55</title>
				<path d="M20.68 41.02 C21.67 41.02 22.57 41.19 23.38 41.51 C24.21 41.83 24.91 42.27 25.49 42.85 C26.08 43.42 26.53
							 44.11 26.85 44.92 C27.17 45.74 27.33 46.63 27.33 47.61 L27.33 58.35 L22.81 58.35 L22.81 49.07 C22.81
							 47.84 22.52 46.9 21.94 46.27 C21.36 45.62 20.55 45.29 19.52 45.29 C19.03 45.29 18.57 45.37 18.12 45.53
							 C17.69 45.68 17.32 45.92 16.99 46.25 C16.68 46.56 16.42 46.96 16.23 47.43 C16.04 47.91 15.95 48.46 15.95
							 49.1 L15.95 58.35 L11.4 58.35 L11.4 49.07 C11.4 47.84 11.11 46.9 10.53 46.27 C9.96 45.62 9.16 45.29
							 8.11 45.29 C7.63 45.29 7.16 45.37 6.72 45.53 C6.29 45.68 5.91 45.92 5.59 46.25 C5.28 46.56 5.02 46.96
							 4.82 47.43 C4.64 47.91 4.54 48.46 4.54 49.1 L4.54 58.35 L0 58.35 L0 41.48 L4.42 41.48 L4.42 43.46 C5.03
							 42.57 5.76 41.94 6.63 41.58 C7.5 41.21 8.42 41.02 9.38 41.02 C10.61 41.02 11.71 41.28 12.66 41.79 C13.62
							 42.3 14.39 43.01 14.96 43.91 C15.28 43.38 15.66 42.93 16.09 42.56 C16.52 42.19 16.98 41.89 17.48 41.67
							 C17.98 41.44 18.5 41.27 19.03 41.18 C19.58 41.08 20.13 41.02 20.68 41.02 Z" class="st4"/>
			</g>
		</g>
	</g>
</svg>
